<?xml version="1.0" encoding="utf-8"?>
<!-- Generator: Adobe Illustrator 23.0.1, SVG Export Plug-In . SVG Version: 6.00 Build 0)  -->
<svg version="1.1" id="Logo" xmlns="http://www.w3.org/2000/svg" xmlns:xlink="http://www.w3.org/1999/xlink" x="0px" y="0px"
	 viewBox="0 0 395.61 129.95" style="enable-background:new 0 0 395.61 129.95;" xml:space="preserve">
<style type="text/css">
	.st0{fill:#00AB4E;}
</style>
<g>
	<g>
		<path class="st0" d="M270.5,48.72c0,13.64-9,21.63-22.63,21.63h-11.54v19.82h-11.36V27.45h22.91
			C261.5,27.45,270.5,34.99,270.5,48.72z M259.23,48.72c0-7.63-4.73-10.64-11.36-10.64h-11.54v21.63h11.54
			C254.5,59.71,259.23,56.26,259.23,48.72z"/>
		<path class="st0" d="M323.85,61.81v27.81h-11.18v-5c0,0.09-3.91,5.55-13.54,5.55c-14.72,0-23.73-9.45-23.73-24.18v-4.18
			c0-14.82,9.55-24.09,24.36-24.09C314.58,37.72,323.85,46.99,323.85,61.81z M312.67,61.81c0-8.18-5.27-13.18-12.91-13.18
			c-7.64,0-13.18,5-13.18,13.18v4.18c0,7.73,5.64,13.27,13.18,13.27c8.09,0,12.91-4.54,12.91-13V61.81z"/>
		<path class="st0" d="M375.34,38.32v51.81c0,13.81-9.36,20.9-23.45,20.9c-6.82,0-12.91-2.72-16.91-6.36V93.4
			c4,3.63,10.18,6.91,17.45,6.91c7.73,0,12.36-3.27,12.36-10.81v-4.82c-2.54,3.36-7.82,5.27-12.91,5.27
			c-13.09,0-20.91-8.91-20.91-21.81V38.32h11.82v29.81c0,6.36,4.18,10.91,10.55,10.91c6.36,0,10.55-4,10.55-10.36V38.32H375.34z"/>
	</g>
	<path class="st0" d="M208.33,46.2c-4.44-4.44-10.28-6.89-16.42-6.89c-4.5,0-9.01,1.67-11.5,3.33c-5.13,3.42-9.36,7.14-16.96,16.96
		v7.06c6.45-8.41,12.55-15.03,17.19-18.67c3.04-2.45,7.37-3.96,11.27-3.96c10.07,0,18.58,8.51,18.58,18.58v4.25
		c0,4.98-1.96,9.66-5.52,13.18c-3.53,3.49-8.17,5.4-13.06,5.4c-8.27,0-15.56-5.68-17.54-13.43l-3.33,4.03
		c2.42,8.13,11.19,14.12,20.87,14.12c6.14,0,11.98-2.44,16.42-6.88c4.44-4.44,6.88-10.27,6.88-16.42v-4.25
		C215.21,56.47,212.77,50.64,208.33,46.2 M107.23,44.03c3.21,0,5.98,0.69,8.48,2.1c1.18-1.47,2.37-2.66,3.25-3.55
		c-2.64-2.02-7.13-3.28-11.73-3.28c-6.56,0-12.5,2.36-16.76,6.66c-4.22,4.26-6.55,10.17-6.55,16.64v27.55h4.72V62.61
		C88.65,51.68,96.29,44.03,107.23,44.03 M152.09,90.16V62.61c0-8.47-6.64-15.11-15.11-15.11c-3.95,0-7.71,1.6-10.61,4.5
		c-2.9,2.9-4.5,6.67-4.5,10.61v4.25c0,8.19,6.92,15.11,15.11,15.11c2.24,0,5.3-0.55,7.17-2.08V74.9c-1.83,1.48-4.5,2.36-7.17,2.36
		c-5.82,0-10.39-4.56-10.39-10.39v-4.25c0-5.82,4.56-10.39,10.39-10.39c5.83,0,10.39,4.56,10.39,10.39v27.55H152.09z M25.66,59.89
		v1.52c0,8.18,3.11,15.82,8.75,21.49c5.62,5.67,13.17,8.78,21.23,8.78c6.48,0,12.23-1.46,17.08-4.35c4-2.38,5.77-4.79,5.92-5.01
		V56.91H54.49v4.72h19.43v19.22l-0.02,0.02c-2.28,2.28-7.68,6.09-18.26,6.09c-6.9,0-13.29-2.63-17.99-7.42
		c-4.69-4.76-7.26-11.2-7.26-18.14v-1.52c0-6.56,2.95-13.09,8.1-17.92c5.26-4.93,12.11-7.64,19.29-7.64
		c6.69,0,11.36,1.02,15.11,3.28v-5.3c-3.9-1.66-8.56-2.41-15.11-2.41C40.36,29.91,25.66,43.64,25.66,59.89 M107.23,52.23
		c1.79,0,3.31,0.3,4.52,0.89c0.59-1.47,1.19-2.68,2.07-4.14c-1.28-0.92-4.34-1.47-6.59-1.47c-8.61,0-15.11,6.49-15.11,15.11v27.55
		h4.72V62.61C96.85,56.5,101.11,52.23,107.23,52.23 M72.87,46.69v-5.58c-4.27-2.29-8.93-3.31-15.11-3.31
		c-6.3,0-12.28,2.31-16.84,6.51c-4.56,4.2-7.07,9.74-7.07,15.58v1.52c0,12.18,9.77,22.09,21.78,22.09c9.77,0,13.78-3.2,14.8-4.21
		V65.11H54.49v4.72h11.54v7.1l-0.04,0.01c-1.48,0.6-4.57,1.83-10.34,1.83c-4.58,0-8.87-1.78-12.08-5.03
		c-3.22-3.25-4.99-7.63-4.99-12.33v-1.52c0-9.42,8.79-17.37,19.19-17.37C64.96,42.52,69.21,43.69,72.87,46.69 M184.28,55.58
		c2.13-2.13,4.92-3.35,7.63-3.35c5.82,0,10.39,4.56,10.39,10.39v4.25c0,5.83-4.56,10.39-10.39,10.39c-2.82,0-5.54-1.54-7.68-4.35
		c-1.89-2.48-3.12-5.83-3.31-8.84l-3.82,4.67c0.75,3.58,2.62,6.99,5.25,9.39c2.72,2.48,6.11,3.84,9.55,3.84
		c8.33,0,15.11-6.77,15.11-15.11v-4.25c0-3.94-1.6-7.71-4.49-10.61c-2.9-2.9-6.67-4.5-10.61-4.5c-2.5,0-6.46,0.9-11.19,5.15
		l-0.02,0.02c-1.27,1.26-4.24,4.23-6.04,6.35c-3.04,3.31-7.46,8.31-11.21,13.33v7.37c4.17-5.37,6.57-8.37,10.5-12.9
		C177.47,62.72,181.82,57.74,184.28,55.58 M113.68,66.86c0,6.15,2.44,11.98,6.88,16.42c4.44,4.44,10.27,6.88,16.42,6.88
		c2.6,0,5.28-0.55,7.17-1.48v-4.72c-2.21,0.92-4.88,1.48-7.17,1.48c-10.07,0-18.58-8.51-18.58-18.58v-4.25
		c0-10.07,8.51-18.58,18.58-18.58c5.01,0,9.69,1.92,13.17,5.41c3.49,3.49,5.41,8.17,5.41,13.17v27.55h4.72V61.71
		c-0.29-6.01-2.86-11.64-7.22-15.85c-4.37-4.22-10.08-6.55-16.07-6.55c-6.14,0-11.98,2.44-16.42,6.89
		c-4.44,4.44-6.88,10.27-6.88,16.41V66.86z M168.31,48.59c1.45-1.73,2.94-3.5,4.72-4.98V18.68h-4.72V48.59z M176.5,41.68v-23h4.72
		v19.76C179.94,39.08,178.15,40.32,176.5,41.68"/>
</g>
</svg>
